<?xml version="1.0" standalone="no"?>
<!DOCTYPE svg PUBLIC "-//W3C//DTD SVG 20010904//EN"
 "http://www.w3.org/TR/2001/REC-SVG-20010904/DTD/svg10.dtd">
<svg version="1.0" xmlns="http://www.w3.org/2000/svg"
 width="398.000000pt" height="398.000000pt" viewBox="0 0 398.000000 398.000000"
 preserveAspectRatio="xMidYMid meet">
<metadata>
Created by potrace 1.11, written by Peter Selinger 2001-2013
</metadata>
<g transform="translate(0.000000,398.000000) scale(0.100000,-0.100000)"
fill="#000000" stroke="none">
<path d="M1894 3950 c-77 -38 -176 -121 -249 -207 -216 -253 -361 -617 -417
-1043 -16 -124 -16 -523 0 -670 12 -107 56 -385 68 -421 3 -12 -14 -25 -63
-49 -82 -41 -156 -113 -201 -197 -116 -219 -106 -633 27 -1081 18 -60 25 -70
56 -85 20 -9 38 -17 40 -17 2 0 7 17 10 38 56 360 146 572 268 631 78 38 81
35 115 -91 17 -62 40 -151 52 -198 12 -47 26 -102 31 -122 l10 -38 368 0 368
0 47 183 c67 264 75 287 94 287 34 -1 98 -38 134 -78 85 -95 164 -316 194
-549 4 -29 8 -53 11 -53 2 0 21 9 43 20 35 18 41 27 59 87 111 379 136 740 66
961 -45 143 -137 255 -250 303 -30 13 -55 29 -55 35 0 7 9 54 19 105 106 520
83 1068 -60 1487 -110 321 -302 601 -495 725 -122 78 -191 87 -290 37z m250
-874 c63 -31 119 -89 149 -155 31 -66 30 -177 -2 -248 -62 -139 -230 -213
-377 -167 -85 26 -176 117 -199 199 -62 211 97 414 313 401 41 -2 81 -13 116
-30z"/>
</g>
</svg>
